<svg width="610" height="1248" viewBox="0 0 610 1248" fill="none" xmlns="http://www.w3.org/2000/svg">
<g opacity="0.5" filter="url(#filter0_d_1014_31)">
<path d="M-11.4294 30C-11.4294 30 88.8853 179.209 177.109 213.102C265.332 246.995 376.659 236.304 450.891 300.411C487.827 331.758 518.125 370.205 539.997 413.481C561.869 456.757 574.872 503.986 578.238 552.382C580.268 580.821 582.556 605.364 566.924 631.206C554.53 651.94 536.048 668.346 516.788 682.847C486.56 705.702 452.661 725.527 429.99 756.044C387.454 813.356 393.759 889.886 372.556 955.162C352.433 1017.11 322.377 1081.43 276.258 1128.31C251.744 1153.9 221.173 1172.87 187.386 1183.46C25.8378 1231.33 -24.8594 1215.49 -24.8594 1215.49V30H-11.4294Z" fill="#2C64B2"/>
</g>
<g opacity="0.6" filter="url(#filter1_d_1014_31)">
<path d="M-9.90719 129.293C-9.90719 129.293 76.1305 277.302 187.016 293.7C297.901 310.097 422.572 352.799 452.389 440.8C482.206 528.801 511.418 572.282 456.71 651.241C402.002 730.199 354.165 723.58 326.033 836.804C297.901 950.028 300.105 1047.24 150.63 1094.19C1.15542 1141.13 -38.0391 1112.96 -38.0391 1112.96V129.293H-9.90719Z" fill="#2E5AAB"/>
</g>
<g opacity="0.7" filter="url(#filter2_d_1014_31)">
<path d="M-10.9274 223.314C-10.9274 223.314 65.1406 356.425 172.033 366.937C278.925 377.45 357.972 440.479 382.235 551.744C406.497 663.008 317.478 676.938 285.962 726.254C254.447 775.57 254.361 817.576 250.691 852.184C247.022 886.792 202.167 974.393 104.427 1003.12C6.68652 1031.84 -38.0391 1022.28 -38.0391 1022.28V223.314H-10.9274Z" fill="#3150A3"/>
</g>
<g opacity="0.8" filter="url(#filter3_d_1014_31)">
<path d="M-12.5547 318.213C-12.5547 318.213 35.4071 415.364 92.164 422.714C136.096 428.421 182.065 437.241 219.932 461.626C264.254 489.989 290.51 543.471 274.393 595.268C265.468 623.933 247.704 648.88 231.067 673.784C214.43 698.688 197.836 724.845 192.073 754.332C188.521 772.923 189.387 792.293 184.145 810.539C177.559 833.497 161.615 852.953 142.855 867.826C120.977 885.184 96.4646 898.947 70.2411 908.597C63.3523 911.018 -12.5547 926.627 -12.5547 918.844V318.213Z" fill="#373B92"/>
</g>
<g opacity="0.9" filter="url(#filter4_d_1014_31)">
<path d="M-17.1527 416.617C-17.1527 416.617 38.276 493.937 73.1723 493.937C108.069 493.937 171.909 518.211 181.01 570.133C186.834 603.233 175.23 628.934 155.345 654.376C145.122 667.356 134.424 679.471 128.774 695.394C122.303 713.697 121.052 733.384 114.711 751.643C91.8499 818.016 12.438 836.449 -49.4609 824.42V401.689L-17.1527 416.617Z" fill="#3B3089"/>
</g>
<g filter="url(#filter5_d_1014_31)">
<path d="M-6.45512 522.07C-6.45512 522.07 4.21713 552.382 47.5975 561.475C90.9778 570.569 104.199 614.911 82.898 639.983C61.5967 665.055 60.0844 683.285 57.8808 697.488C55.6773 711.692 23.7037 752.006 -68.6307 717.754C-160.965 683.502 -95.4626 544.891 -95.4626 544.891L-6.45512 522.07Z" fill="#3C2A84"/>
</g>
<defs>
<filter id="filter0_d_1014_31" x="-54.8594" y="0" width="664.543" height="1248" filterUnits="userSpaceOnUse" color-interpolation-filters="sRGB">
<feFlood flood-opacity="0" result="BackgroundImageFix"/>
<feColorMatrix in="SourceAlpha" type="matrix" values="0 0 0 0 0 0 0 0 0 0 0 0 0 0 0 0 0 0 127 0" result="hardAlpha"/>
<feOffset/>
<feGaussianBlur stdDeviation="15"/>
<feComposite in2="hardAlpha" operator="out"/>
<feColorMatrix type="matrix" values="0 0 0 0 0 0 0 0 0 0 0 0 0 0 0 0 0 0 0.4 0"/>
<feBlend mode="normal" in2="BackgroundImageFix" result="effect1_dropShadow_1014_31"/>
<feBlend mode="normal" in="SourceGraphic" in2="effect1_dropShadow_1014_31" result="shape"/>
</filter>
<filter id="filter1_d_1014_31" x="-68.0391" y="99.293" width="585.461" height="1052.05" filterUnits="userSpaceOnUse" color-interpolation-filters="sRGB">
<feFlood flood-opacity="0" result="BackgroundImageFix"/>
<feColorMatrix in="SourceAlpha" type="matrix" values="0 0 0 0 0 0 0 0 0 0 0 0 0 0 0 0 0 0 127 0" result="hardAlpha"/>
<feOffset/>
<feGaussianBlur stdDeviation="15"/>
<feComposite in2="hardAlpha" operator="out"/>
<feColorMatrix type="matrix" values="0 0 0 0 0 0 0 0 0 0 0 0 0 0 0 0 0 0 0.4 0"/>
<feBlend mode="normal" in2="BackgroundImageFix" result="effect1_dropShadow_1014_31"/>
<feBlend mode="normal" in="SourceGraphic" in2="effect1_dropShadow_1014_31" result="shape"/>
</filter>
<filter id="filter2_d_1014_31" x="-68.0391" y="193.314" width="484.41" height="860.494" filterUnits="userSpaceOnUse" color-interpolation-filters="sRGB">
<feFlood flood-opacity="0" result="BackgroundImageFix"/>
<feColorMatrix in="SourceAlpha" type="matrix" values="0 0 0 0 0 0 0 0 0 0 0 0 0 0 0 0 0 0 127 0" result="hardAlpha"/>
<feOffset/>
<feGaussianBlur stdDeviation="15"/>
<feComposite in2="hardAlpha" operator="out"/>
<feColorMatrix type="matrix" values="0 0 0 0 0 0 0 0 0 0 0 0 0 0 0 0 0 0 0.4 0"/>
<feBlend mode="normal" in2="BackgroundImageFix" result="effect1_dropShadow_1014_31"/>
<feBlend mode="normal" in="SourceGraphic" in2="effect1_dropShadow_1014_31" result="shape"/>
</filter>
<filter id="filter3_d_1014_31" x="-42.5547" y="288.213" width="351.727" height="662.787" filterUnits="userSpaceOnUse" color-interpolation-filters="sRGB">
<feFlood flood-opacity="0" result="BackgroundImageFix"/>
<feColorMatrix in="SourceAlpha" type="matrix" values="0 0 0 0 0 0 0 0 0 0 0 0 0 0 0 0 0 0 127 0" result="hardAlpha"/>
<feOffset/>
<feGaussianBlur stdDeviation="15"/>
<feComposite in2="hardAlpha" operator="out"/>
<feColorMatrix type="matrix" values="0 0 0 0 0 0 0 0 0 0 0 0 0 0 0 0 0 0 0.4 0"/>
<feBlend mode="normal" in2="BackgroundImageFix" result="effect1_dropShadow_1014_31"/>
<feBlend mode="normal" in="SourceGraphic" in2="effect1_dropShadow_1014_31" result="shape"/>
</filter>
<filter id="filter4_d_1014_31" x="-79.4609" y="371.689" width="291.977" height="486.168" filterUnits="userSpaceOnUse" color-interpolation-filters="sRGB">
<feFlood flood-opacity="0" result="BackgroundImageFix"/>
<feColorMatrix in="SourceAlpha" type="matrix" values="0 0 0 0 0 0 0 0 0 0 0 0 0 0 0 0 0 0 127 0" result="hardAlpha"/>
<feOffset/>
<feGaussianBlur stdDeviation="15"/>
<feComposite in2="hardAlpha" operator="out"/>
<feColorMatrix type="matrix" values="0 0 0 0 0 0 0 0 0 0 0 0 0 0 0 0 0 0 0.4 0"/>
<feBlend mode="normal" in2="BackgroundImageFix" result="effect1_dropShadow_1014_31"/>
<feBlend mode="normal" in="SourceGraphic" in2="effect1_dropShadow_1014_31" result="shape"/>
</filter>
<filter id="filter5_d_1014_31" x="-148" y="492.07" width="270.887" height="269.131" filterUnits="userSpaceOnUse" color-interpolation-filters="sRGB">
<feFlood flood-opacity="0" result="BackgroundImageFix"/>
<feColorMatrix in="SourceAlpha" type="matrix" values="0 0 0 0 0 0 0 0 0 0 0 0 0 0 0 0 0 0 127 0" result="hardAlpha"/>
<feOffset/>
<feGaussianBlur stdDeviation="15"/>
<feComposite in2="hardAlpha" operator="out"/>
<feColorMatrix type="matrix" values="0 0 0 0 0 0 0 0 0 0 0 0 0 0 0 0 0 0 0.4 0"/>
<feBlend mode="normal" in2="BackgroundImageFix" result="effect1_dropShadow_1014_31"/>
<feBlend mode="normal" in="SourceGraphic" in2="effect1_dropShadow_1014_31" result="shape"/>
</filter>
</defs>
</svg>
